<svg width="224" height="224" viewBox="0 0 224 224" fill="none" xmlns="http://www.w3.org/2000/svg">
<g clip-path="url(#clip0_3959_28412)">
<path opacity="0.15" d="M112 0C173.8 0 224 50.2 224 112V224H0V112C0 50.2 50.2 0 112 0Z" fill="#51B171"/>
<mask id="mask0_3959_28412" style="mask-type:luminance" maskUnits="userSpaceOnUse" x="0" y="0" width="224" height="224">
<path d="M112 0C173.8 0 224 50.2 224 112V224H0V112C0 50.2 50.2 0 112 0Z" fill="white"/>
</mask>
<g mask="url(#mask0_3959_28412)">
<g opacity="0.5">
<g opacity="0.6">
<path d="M356 79.2994V84.6994H351.3V79.2994H343V84.6994H336.6V108.899H323.4V100.599H318.6V79.2994H314.4V72.2994H313.4V79.2994H309.5V76.2994H302.1V79.2994H294.8V94.3994H289.7V91.4994H273.9V94.3994H269.5V88.0994H268V94.3994H263.7V116.199H251V84.6994H249.7L246.1 82.1994V76.2994L243.5 74.5994C243.5 72.7994 242.2 71.2994 240.4 70.8994V62.4994C240.4 62.0994 240.1 61.7994 239.7 61.7994C239.3 61.7994 239 62.0994 239 62.4994V70.8994C237.2 71.1994 235.9 72.6994 235.9 74.5994L233.3 76.2994V82.1994L229.7 84.6994H228.2V116.199H222.6V106.299H218.2V94.3994H211.9V85.8994L208.1 82.2994V78.2994L201.8 73.4994L199.1 71.6994H195V64.2994H194.2V71.6994H193.5V73.4994H191.6V94.4994H186.2V106.399H181.8V116.299H176.2V100.999C169.7 96.3994 163 91.8994 156.6 87.1994V80.3994H150.7V78.2994H126.5V80.3994H120.6V91.3994H114.8V94.2994H109.7V79.2994H103.8V55.0994L102.6 51.8994L102.4 60.5994L82.5004 72.8994L82.3004 100.599H81.0004V108.899H80.3004V107.599H75.7004V89.2994L73.7004 86.9994H71.6004V85.1994L65.0004 75.0994L58.0004 85.1994V86.9994H56.0004L53.9004 89.1994V107.499H49.2004L45.7004 108.799V127.199H36.3004V108.799H20.3004V100.499H15.5004V79.2994H11.3004V72.2994H10.3004V79.2994H6.40039V76.2994H-0.999611V79.2994H-8.29961V94.3994H-13.3996V91.4994H-29.1996V94.3994H-33.4996V88.0994H-34.9996V94.3994H-39.2996L-45.1996 116.199H-52.0996V84.6994L-53.3996 82.1994H-56.9996V76.2994L-59.5996 74.5994C-59.5996 72.7994 -60.8996 71.2994 -62.6996 70.8994V62.4994C-62.6996 62.0994 -62.9996 61.7994 -63.3996 61.7994C-63.7996 61.7994 -64.0996 62.0994 -64.0996 62.4994V70.8994C-65.8996 71.1994 -67.1996 72.6994 -67.1996 74.5994L-69.8996 76.2994V82.1994H-73.4996L-74.9996 84.6994V116.199H-80.5996V106.299H-84.9996V94.3994H-91.4996V89.1994H-92.7996V94.3994H-95.8996V89.7994H-101.7V94.3994H-105.1V237.099H363.7V52.6994L356 79.2994Z" fill="#8FDEB2"/>
</g>
</g>
<path d="M167 108.899H65.2002V193.699H167V108.899Z" fill="#99C1F6"/>
<path opacity="0.4" d="M65.2998 178.899H166.8" stroke="white" stroke-width="3.49" stroke-miterlimit="10"/>
<path d="M156 135.6H116V193.7H156V135.6Z" fill="#5679F4"/>
<path d="M146.7 145.899H125.3V177.199H146.7V145.899Z" fill="#99C1F6"/>
<path d="M151.4 163.6V170.2" stroke="#99C1F6" stroke-width="0.95" stroke-miterlimit="10"/>
<g opacity="0.3">
<path d="M146.7 149.699V154.999L125.3 169.499V164.199L146.7 149.699Z" fill="white"/>
</g>
<g opacity="0.3">
<path d="M146.7 158.6V161.8L125.3 176.3V173.1L146.7 158.6Z" fill="white"/>
</g>
<path d="M224.5 193.6H56.7002V196.3H224.5V193.6Z" fill="#3D59E2"/>
<path fill-rule="evenodd" clip-rule="evenodd" d="M166.7 85.8994L166 83.4994C165.9 82.9994 165.5 82.5994 165 82.4994L162.6 81.7994C162.5 81.7994 162.4 81.6994 162.4 81.4994C162.4 81.2994 162.5 81.2994 162.6 81.1994L165 80.4994C165.5 80.2994 165.9 79.9994 166 79.4994L166.7 77.0994C166.7 76.9994 166.8 76.8994 167 76.8994C167.2 76.8994 167.2 76.9994 167.3 77.0994L168 79.4994C168.1 79.9994 168.5 80.3994 169 80.4994L171.4 81.1994C171.5 81.1994 171.6 81.2994 171.6 81.4994C171.6 81.6994 171.5 81.6994 171.4 81.7994L169 82.4994C168.5 82.6994 168.1 82.9994 168 83.4994L167.3 85.8994C167.3 85.9994 167.2 86.0994 167 86.0994C166.8 86.0994 166.7 86.0994 166.7 85.8994Z" fill="#C988DC"/>
<path d="M169.101 89.9996C169.101 88.6996 170.201 87.5996 171.501 87.5996C172.801 87.5996 173.901 88.6996 173.901 89.9996C173.901 91.2996 172.801 92.3996 171.501 92.3996C170.201 92.3996 169.101 91.2996 169.101 89.9996ZM170.201 89.9996C170.201 90.6996 170.801 91.2996 171.501 91.2996C172.201 91.2996 172.801 90.6996 172.801 89.9996C172.801 89.2996 172.201 88.6996 171.501 88.6996C170.801 88.6996 170.201 89.2996 170.201 89.9996Z" fill="#F9D2A2"/>
<path fill-rule="evenodd" clip-rule="evenodd" d="M207.7 143.7L208.2 142.1C208.3 141.8 208.6 141.5 208.9 141.4L210.5 140.9C210.6 140.9 210.6 140.8 210.6 140.7C210.6 140.6 210.5 140.6 210.5 140.5L208.9 140C208.6 139.9 208.3 139.6 208.2 139.3L207.7 137.7C207.7 137.6 207.6 137.6 207.5 137.6C207.4 137.6 207.4 137.7 207.3 137.7L206.8 139.3C206.7 139.6 206.4 139.9 206.1 140L204.5 140.5C204.4 140.5 204.4 140.6 204.4 140.7C204.4 140.8 204.5 140.8 204.5 140.9L206.1 141.4C206.4 141.5 206.7 141.8 206.8 142.1L207.3 143.7C207.3 143.8 207.4 143.8 207.5 143.8C207.6 143.8 207.6 143.7 207.7 143.7Z" fill="white"/>
<path opacity="0.2" d="M68.4004 110.399V115.599C68.4004 120.899 72.5004 125.399 77.8004 125.399C83.1004 125.399 87.4004 121.299 87.4004 115.899V110.399H68.4004Z" fill="#2D74D0"/>
<path opacity="0.2" d="M87.4004 110.399V115.599C87.4004 120.899 91.5004 125.399 96.8004 125.399C102.2 125.499 106.4 121.299 106.4 115.899V110.399H87.4004Z" fill="#2D74D0"/>
<path opacity="0.2" d="M106.4 110.399V115.599C106.4 120.899 110.5 125.399 115.8 125.399C121.2 125.499 125.4 121.299 125.4 115.899V110.399H106.4Z" fill="#2D74D0"/>
<path opacity="0.2" d="M125.4 110.399V115.599C125.4 120.899 129.5 125.399 134.8 125.399C140.2 125.499 144.4 121.299 144.4 115.899V110.399H125.4Z" fill="#2D74D0"/>
<path opacity="0.2" d="M144.4 110.399V115.599C144.4 120.899 148.5 125.399 153.8 125.399C159.2 125.499 163.4 121.299 163.4 115.899V110.399H144.4Z" fill="#2D74D0"/>
<path d="M61.2002 106.199V112.199C61.2002 118.299 66.0002 123.499 72.1002 123.599C78.2002 123.699 83.2002 118.799 83.2002 112.599V106.199H61.2002Z" fill="#3D59E2"/>
<path d="M83.2002 106.199V112.199C83.2002 118.299 88.0002 123.499 94.1002 123.599C100.3 123.699 105.2 118.799 105.2 112.599V106.199H83.2002Z" fill="#7AB256"/>
<path d="M105.101 106.199V112.199C105.101 118.299 109.901 123.499 116.001 123.599C122.201 123.699 127.101 118.799 127.101 112.599V106.199H105.101Z" fill="#3D59E2"/>
<path d="M127.101 106.199V112.199C127.101 118.299 131.901 123.499 138.001 123.599C144.201 123.699 149.101 118.799 149.101 112.599V106.199H127.101Z" fill="#7AB256"/>
<path d="M149.101 106.199V112.199C149.101 118.299 153.901 123.499 160.001 123.599C166.201 123.699 171.101 118.799 171.101 112.599V106.199H149.101Z" fill="#3D59E2"/>
<path d="M83.2002 106.2L91.4002 90.5996H75.1002L61.2002 106.2H83.2002Z" fill="#5679F4"/>
<path d="M105.1 106.2L107.9 90.5996H91.4002L83.2002 106.2H105.1Z" fill="#B3E595"/>
<path d="M127.101 106.2L124.401 90.5996H107.901L105.101 106.2H127.101Z" fill="#5679F4"/>
<path d="M149.1 106.2L140.9 90.5996H124.4L127.1 106.2H149.1Z" fill="#B3E595"/>
<path d="M171.1 106.2L157.1 90.5996H140.9L149.1 106.2H171.1Z" fill="#5679F4"/>
<path opacity="0.6" d="M73.2004 135.6H109C109.4 135.6 109.8 136 109.8 136.4V167.6H72.4004V136.4C72.4004 136 72.8004 135.6 73.2004 135.6Z" fill="white"/>
<path opacity="0.2" d="M171.501 193.599H157.601L160.701 170.199H171.501V193.599Z" fill="#194A9F"/>
<path opacity="0.22" d="M184.9 193.2H160.5V193.5H184.9V193.2Z" fill="#B0916A"/>
<path d="M184.9 169.2H160.5V193.6H184.9V169.2Z" fill="#86CA73"/>
<path opacity="0.22" d="M180 190.8L163.2 173.9V175.3L178.6 190.8H180Z" fill="#B6975D"/>
<path d="M182.2 172H163.4V190.8H182.2V172Z" fill="#67B547"/>
<path opacity="0.5" d="M182.2 172H163.4V173.4H182.2V172Z" fill="#62A940"/>
<path opacity="0.55" d="M182.101 172H181.101V190.8H182.101V172Z" fill="#62A940"/>
<path opacity="0.55" d="M178.601 172H177.601V190.8H178.601V172Z" fill="#62A940"/>
<path opacity="0.55" d="M175 172H174V190.8H175V172Z" fill="#62A940"/>
<path opacity="0.55" d="M171.4 172H170.4V190.8H171.4V172Z" fill="#62A940"/>
<path opacity="0.55" d="M167.9 172H166.9V190.8H167.9V172Z" fill="#62A940"/>
<path opacity="0.55" d="M164.4 172H163.4V190.8H164.4V172Z" fill="#62A940"/>
<path d="M163.274 170.034L161.294 172.014L182.153 192.873L184.133 190.893L163.274 170.034Z" fill="#86CA73"/>
<path opacity="0.55" d="M161.8 190.9C161.7 191 161.7 191.3 161.8 191.5L162.7 192.4C162.8 192.5 163.1 192.5 163.3 192.4C163.4 192.3 163.4 192 163.3 191.8L162.4 190.9C162.2 190.7 162 190.7 161.8 190.9Z" fill="#62A940"/>
<path opacity="0.55" d="M163.3 170.2C163.4 170.3 163.4 170.6 163.3 170.8L162.4 171.7C162.3 171.8 162 171.8 161.8 171.7C161.7 171.6 161.7 171.3 161.8 171.1L162.7 170.2C162.9 170.1 163.1 170.1 163.3 170.2Z" fill="#62A940"/>
<path opacity="0.55" d="M184.9 169.2H160.5V169.5H184.9V169.2Z" fill="#62A940"/>
<path d="M163.4 174.1V190.8H160.5V171.2L163.4 174.1Z" fill="#86CA73"/>
<path opacity="0.5" d="M186.7 193.6H172.9L175.9 170.2H186.7V193.6Z" fill="#519C45"/>
<path opacity="0.22" d="M201.8 193.2H177.4V193.5H201.8V193.2Z" fill="#B0916A"/>
<path opacity="0.22" d="M201.8 193.2H177.4V193.5H201.8V193.2Z" fill="#B0916A"/>
<path d="M201.8 169.2H177.4V193.6H201.8V169.2Z" fill="#86CA73"/>
<path opacity="0.22" d="M196.901 190.8L180.101 173.9V175.3L195.501 190.8H196.901Z" fill="#B6975D"/>
<path d="M199 172H180.2V190.8H199V172Z" fill="#67B547"/>
<path opacity="0.5" d="M199 172H180.2V173.4H199V172Z" fill="#62A940"/>
<path opacity="0.55" d="M199 172H198V190.8H199V172Z" fill="#62A940"/>
<path opacity="0.55" d="M195.4 172H194.4V190.8H195.4V172Z" fill="#62A940"/>
<path opacity="0.55" d="M191.9 172H190.9V190.8H191.9V172Z" fill="#62A940"/>
<path opacity="0.55" d="M188.3 172H187.3V190.8H188.3V172Z" fill="#62A940"/>
<path opacity="0.55" d="M184.8 172H183.8V190.8H184.8V172Z" fill="#62A940"/>
<path opacity="0.55" d="M181.2 172H180.2V190.8H181.2V172Z" fill="#62A940"/>
<path d="M180.046 170.059L178.066 172.039L198.926 192.899L200.906 190.919L180.046 170.059Z" fill="#86CA73"/>
<path opacity="0.55" d="M178.7 190.9C178.6 191 178.6 191.3 178.7 191.5L179.6 192.4C179.7 192.5 180 192.5 180.2 192.4C180.3 192.3 180.3 192 180.2 191.8L179.3 190.9C179.1 190.7 178.8 190.7 178.7 190.9Z" fill="#62A940"/>
<path opacity="0.55" d="M180.1 170.2C180.2 170.3 180.2 170.6 180.1 170.8L179.2 171.7C179.1 171.8 178.8 171.8 178.6 171.7C178.5 171.6 178.5 171.3 178.6 171.1L179.5 170.2C179.7 170.1 180 170.1 180.1 170.2Z" fill="#62A940"/>
<path opacity="0.55" d="M201.8 169.2H177.4V169.5H201.8V169.2Z" fill="#62A940"/>
<path d="M180.2 174.1V190.8H177.4V171.2L180.2 174.1Z" fill="#86CA73"/>
<path opacity="0.5" d="M201.9 193.6H184.4L191.1 170.2H201.9V193.6Z" fill="#519C45"/>
<path d="M203.9 193.4L198.1 170.2L197.6 170.3L203.4 193.6L203.9 193.4Z" fill="#7AB256"/>
<path opacity="0.2" d="M203.9 193.4L198.1 170.2L197.6 170.3L203.4 193.6L203.9 193.4Z" fill="#194A9F"/>
<path d="M208.9 192.5L205.4 193.6H203.4L206.8 192.5H208.9Z" fill="#7AB256"/>
<path d="M210.5 193.4L204.7 170.2L204.2 170.3L209.9 193.6L210.5 193.4Z" fill="#7AB256"/>
<path opacity="0.2" d="M210.5 193.4L204.7 170.2L204.2 170.3L209.9 193.6L210.5 193.4Z" fill="#194A9F"/>
<path d="M199 193.6H197.2L191.4 170.2H193.2L199 193.6Z" fill="#7AB256"/>
<path d="M205.001 191L207.801 192.2L205.601 193.6H203.801L198.101 170.2H199.901L205.001 191Z" fill="#7AB256"/>
<path d="M211.8 191.9L214.5 192.2L212.2 193.5L210.4 193.6L204.7 170.2H206.5L211.8 191.9Z" fill="#7AB256"/>
<g opacity="0.55">
<path d="M199 193.6H197.2L191.4 170.2H193.2L199 193.6Z" fill="#E4DFDB"/>
<path d="M205.001 191L207.801 192.2L205.601 193.6H203.801L198.101 170.2H199.901L205.001 191Z" fill="#E4DFDB"/>
<path d="M211.8 191.9L214.5 192.2L212.2 193.5L210.4 193.6L204.7 170.2H206.5L211.8 191.9Z" fill="#E4DFDB"/>
</g>
<path d="M199 193.6H197.2L191.4 170.2H193.2L199 193.6Z" fill="#4D913F"/>
<path d="M205.001 191L207.801 192.2L205.601 193.6H203.801L198.101 170.2H199.901L205.001 191Z" fill="#4D913F"/>
<path d="M211.8 191.9L214.5 192.2L212.2 193.5L210.4 193.6L204.7 170.2H206.5L211.8 191.9Z" fill="#4D913F"/>
<path d="M197.3 193.5L191.6 170.2L191.1 170.4L196.8 193.6L197.3 193.5Z" fill="#67B547"/>
<path d="M200.4 192.5L194.7 169.3L194.1 169.4L199.9 192.7L200.4 192.5Z" fill="#67B547"/>
<path d="M195 172.899L194.1 169.399L191.6 170.199L192.4 173.699L195 172.899Z" fill="#67B547"/>
<path d="M197.4 182.8L196.6 179.3L194 180.1L194.9 183.6L197.4 182.8Z" fill="#67B547"/>
<path d="M199.9 192.7L199 189.2L196.5 190L197.3 193.5L199.9 192.7Z" fill="#67B547"/>
<path d="M210.3 172.7L209.4 169.2H195.1L195.9 172.7H210.3Z" fill="#7AB256"/>
<path d="M212.7 182.6L211.9 179.1H197.5L198.4 182.6H212.7Z" fill="#7AB256"/>
<path d="M215.099 192.5L214.299 189.1H199.899L200.799 192.5H215.099Z" fill="#7AB256"/>
<path opacity="0.2" d="M215.099 192.5L214.299 189.1H199.899L200.799 192.5H215.099Z" fill="#194A9F"/>
<g opacity="0.2">
<path d="M210.3 172.7L209.4 169.2H195.1L195.9 172.7H210.3Z" fill="#194A9F"/>
<path d="M212.7 182.6L211.9 179.1H197.5L198.4 182.6H212.7Z" fill="#194A9F"/>
</g>
<path d="M202.2 192.5H200.4L194.7 169.2H196.5L202.2 192.5Z" fill="#86CA73"/>
<path d="M204.9 192.5H203.1L197.3 169.2H199.1L204.9 192.5Z" fill="#86CA73"/>
<path d="M207.5 192.5H205.7L200 169.2H201.8L207.5 192.5Z" fill="#86CA73"/>
<path d="M210.101 192.5H208.401L202.601 169.2H204.401L210.101 192.5Z" fill="#86CA73"/>
<path d="M212.8 192.5H211L205.3 169.2H207.1L212.8 192.5Z" fill="#86CA73"/>
<path d="M215.4 192.5H213.7L207.9 169.2H209.7L215.4 192.5Z" fill="#86CA73"/>
<path d="M203.1 192.5L197.3 169.3L196.8 169.4L202.5 192.7L203.1 192.5Z" fill="#67B547"/>
<path d="M205.8 192.5L200 169.3L199.5 169.4L205.2 192.7L205.8 192.5Z" fill="#67B547"/>
<path d="M208.4 192.5L202.7 169.3L202.1 169.4L207.9 192.7L208.4 192.5Z" fill="#67B547"/>
<path d="M211.1 192.5L205.3 169.3L204.8 169.4L210.5 192.7L211.1 192.5Z" fill="#67B547"/>
<path d="M213.8 192.5L208 169.3L207.5 169.4L213.2 192.7L213.8 192.5Z" fill="#67B547"/>
<path d="M202.3 192.5L198.9 193.6H196.8L200.2 192.5H202.3Z" fill="#7AB256"/>
<path d="M215.4 192.5L212 193.6H209.9L213.4 192.5H215.4Z" fill="#7AB256"/>
<path d="M213.9 192.5H200.4V192.7H213.9V192.5Z" fill="#7AB256"/>
<path opacity="0.2" d="M197.3 193.5L191.6 170.2L191.1 170.4L196.8 193.6L197.3 193.5Z" fill="#194A9F"/>
<path opacity="0.22" d="M204.8 168.8H180.4V169.1H204.8V168.8Z" fill="#B0916A"/>
<path d="M204.8 144.8H180.4V169.2H204.8V144.8Z" fill="#86CA73"/>
<path opacity="0.22" d="M199.9 166.4L183.2 149.5V150.9L198.5 166.4H199.9Z" fill="#B6975D"/>
<path d="M202.101 147.6H183.301V166.4H202.101V147.6Z" fill="#67B547"/>
<path opacity="0.5" d="M202.101 147.6H183.301V149H202.101V147.6Z" fill="#62A940"/>
<path opacity="0.55" d="M202.001 147.6H201.001V166.4H202.001V147.6Z" fill="#62A940"/>
<path opacity="0.55" d="M198.501 147.6H197.501V166.4H198.501V147.6Z" fill="#62A940"/>
<path opacity="0.55" d="M194.9 147.6H193.9V166.4H194.9V147.6Z" fill="#62A940"/>
<path opacity="0.55" d="M191.4 147.6H190.4V166.4H191.4V147.6Z" fill="#62A940"/>
<path opacity="0.55" d="M187.801 147.6H186.801V166.4H187.801V147.6Z" fill="#62A940"/>
<path opacity="0.55" d="M184.301 147.6H183.301V166.4H184.301V147.6Z" fill="#62A940"/>
<path d="M183.164 145.632L181.185 147.612L202.044 168.472L204.024 166.492L183.164 145.632Z" fill="#86CA73"/>
<path opacity="0.55" d="M181.7 166.5C181.6 166.6 181.6 166.9 181.7 167.1L182.6 168C182.7 168.1 183 168.1 183.2 168C183.3 167.9 183.3 167.6 183.2 167.4L182.3 166.5C182.1 166.3 181.9 166.3 181.7 166.5Z" fill="#62A940"/>
<path opacity="0.55" d="M183.2 145.8C183.3 145.9 183.3 146.2 183.2 146.4L182.3 147.3C182.2 147.4 181.9 147.4 181.7 147.3C181.6 147.2 181.6 146.9 181.7 146.7L182.6 145.8C182.8 145.7 183 145.7 183.2 145.8Z" fill="#62A940"/>
<path opacity="0.55" d="M204.8 144.8H180.4V145.1H204.8V144.8Z" fill="#62A940"/>
<path d="M183.3 149.7V166.4H180.4V146.8L183.3 149.7Z" fill="#86CA73"/>
<path opacity="0.67" d="M64.4008 30.9996H13.8008C17.1008 27.6996 20.7008 24.6996 24.6008 22.0996C25.0008 22.8996 25.4008 23.6996 25.7008 24.5996C25.9008 25.3996 25.9008 25.7996 25.2008 26.1996C24.8008 26.3996 24.5008 26.7996 24.2008 27.1996C24.1008 27.2996 24.0008 27.3996 24.1008 27.4996C24.2008 27.5996 24.3008 27.5996 24.5008 27.4996C24.6008 27.3996 24.7008 27.2996 24.8008 27.2996C28.0008 24.4996 31.6008 23.3996 35.8008 24.2996C36.8008 24.4996 36.8008 24.4996 36.1008 25.2996C36.0008 25.3996 35.9008 25.4996 35.9008 25.5996C35.8008 25.7996 35.4008 25.9996 35.7008 26.1996C35.9008 26.3996 36.1008 26.0996 36.3008 25.8996C39.3008 22.0996 43.2008 20.4996 48.0008 21.2996C52.1008 21.9996 54.9008 24.1996 56.6008 27.5996C57.4008 27.1996 58.3008 26.9996 59.2008 26.9996C61.6008 26.9996 63.7008 28.6996 64.4008 30.9996Z" fill="#FAFAFA"/>
<path opacity="0.67" d="M225.601 55.3994H165.701C166.501 52.6994 169.101 50.6994 172.101 50.6994C173.201 50.6994 174.301 50.9994 175.201 51.4994C177.201 47.4994 180.601 44.7994 185.501 43.8994C191.201 42.9994 195.901 44.8994 199.501 49.3994C199.701 49.5994 199.901 49.9994 200.201 49.7994C200.601 49.4994 200.101 49.2994 200.001 49.0994C200.001 48.9994 199.801 48.8994 199.701 48.6994C198.901 47.6994 198.901 47.6994 200.101 47.3994C205.101 46.2994 209.401 47.5994 213.201 50.8994C213.301 50.9994 213.401 51.0994 213.601 51.1994C213.701 51.2994 213.901 51.3994 214.001 51.1994C214.101 51.0994 214.001 50.8994 213.901 50.7994C213.501 50.3994 213.101 49.8994 212.701 49.5994C211.801 49.0994 211.801 48.5994 212.101 47.5994C212.401 46.6994 212.701 45.8994 213.201 45.0994C217.601 48.1994 221.801 51.5994 225.601 55.3994Z" fill="#FAFAFA"/>
</g>
<path d="M97.1264 146.819C97.1264 146.819 92.9264 150.319 83.8264 159.819C83.1264 160.619 82.4264 161.219 81.8264 161.919C81.0264 162.719 80.3264 163.319 79.7264 163.919C78.2264 165.319 76.9264 166.319 75.9264 167.019C74.1264 168.319 73.0264 168.719 72.4264 168.819C72.1264 168.919 71.9264 168.919 71.9264 168.919L66.4264 166.619L58.5264 180.819C58.5264 180.819 65.0264 184.619 65.0264 184.719C65.6264 185.019 66.2264 185.319 66.9264 185.519C74.9264 188.419 81.6264 182.119 85.1264 177.819C86.1264 176.619 86.9264 175.519 87.3264 174.919C87.5264 174.619 87.6264 174.419 87.6264 174.419C87.6264 174.419 87.9264 174.019 88.4264 173.219C88.7264 172.719 89.2264 172.019 89.7264 171.119C91.5264 168.219 94.3264 163.919 96.8264 159.919C100.026 154.919 102.926 150.419 103.126 150.019L97.1264 146.819Z" fill="#D4795D"/>
<path d="M110.026 146.52C110.026 146.52 108.626 148.02 107.726 148.82C106.826 149.62 105.226 150.12 104.126 150.42C103.026 150.72 102.826 151.12 102.826 151.12L97.3258 158.72C97.3258 158.72 95.0258 161.32 91.9258 158.52C88.8258 155.72 91.4258 152.22 91.4258 152.22L97.5258 144.62C97.5258 144.62 97.9258 144.32 97.8258 143.32C97.7258 139.62 101.026 138.92 102.026 139.22C103.026 139.52 104.026 138.32 105.326 137.42C107.926 135.82 109.226 136.32 109.626 136.92C109.826 137.22 108.926 138.92 109.026 139.12C110.026 141.82 110.926 145.52 110.026 146.52Z" fill="#D4795D"/>
<path d="M100.426 132.12C100.226 132.12 100.026 132.22 99.9263 132.52C99.7263 132.92 100.226 133.92 100.226 134.12C100.326 136.72 99.8263 137.22 99.5263 137.92C99.1263 138.82 98.4263 139.82 98.2263 140.62C98.0263 141.42 97.7263 143.02 97.9263 143.72C98.5263 146.72 101.126 147.32 102.126 147.12C102.826 147.02 103.426 146.62 103.726 146.02C104.526 144.52 104.426 142.52 103.426 140.32C103.226 139.82 103.126 139.52 102.926 139.02C102.626 138.02 102.526 138.02 102.526 135.82C102.526 135.12 102.526 134.82 102.426 134.32C102.326 132.92 101.226 132.02 100.426 132.12Z" fill="#D4795D"/>
<path d="M106.226 141.62L109.526 139.02C110.126 138.52 110.226 137.62 109.726 137.02C109.226 136.32 108.126 136.32 107.526 136.92L104.626 139.82C104.226 140.22 104.226 141.02 104.626 141.42C105.126 141.92 105.726 141.92 106.226 141.62Z" fill="#D4795D"/>
<path d="M106.427 144.119L111.027 141.419C111.727 141.019 111.927 140.119 111.527 139.419C111.127 138.619 110.127 138.519 109.427 139.019L105.127 142.219C104.627 142.619 104.527 143.319 104.927 143.819C105.227 144.319 105.927 144.419 106.427 144.119Z" fill="#D4795D"/>
<path d="M107.826 146.02L111.426 144.02C112.126 143.62 112.426 142.72 112.026 142.02C111.626 141.22 110.626 141.02 109.926 141.52L106.626 143.92C106.126 144.32 106.026 145.02 106.326 145.52C106.626 146.12 107.326 146.32 107.826 146.02Z" fill="#D4795D"/>
<path d="M108.926 147.82L111.726 146.22C112.226 145.92 112.426 145.22 112.026 144.62C111.626 144.02 110.726 143.82 110.226 144.22L107.726 146.12C107.326 146.42 107.326 147.02 107.626 147.42C107.926 147.92 108.426 148.02 108.926 147.82Z" fill="#D4795D"/>
<path d="M106.827 137.819C106.227 138.619 105.627 139.419 104.627 139.919C103.727 140.119 103.527 141.619 104.627 141.719C103.227 141.919 103.327 139.819 104.527 139.519C105.227 139.319 106.127 138.319 106.827 137.819Z" fill="#A06652"/>
<path d="M109.126 139.42C108.126 140.32 107.026 141.22 105.926 141.92C105.526 142.12 104.926 142.22 104.626 142.52C104.226 143.12 104.726 144.12 105.526 144.22C104.626 144.42 103.726 143.02 104.426 142.32C104.526 142.12 104.826 142.12 104.926 142.02C106.426 141.42 107.726 140.12 109.126 139.42Z" fill="#A06652"/>
<path d="M110.426 141.819C109.426 142.619 108.426 143.419 107.326 144.019L106.526 144.519C105.926 144.719 105.826 145.419 106.226 145.819C106.426 146.019 106.726 146.119 107.026 146.019C106.726 146.119 106.326 146.219 106.026 145.919C105.426 145.419 105.626 144.319 106.326 144.119L107.126 143.719C108.226 143.119 109.226 142.419 110.426 141.819Z" fill="#A06652"/>
<path d="M101.926 140.02C102.426 141.12 103.226 142.02 103.526 143.32C103.726 144.52 103.326 145.92 102.526 146.72C103.126 145.72 103.426 144.52 103.226 143.32C103.026 142.12 102.126 141.22 101.926 140.02Z" fill="#A06652"/>
<path d="M106.026 138.82C105.726 138.62 105.726 138.02 106.126 137.92C106.126 138.32 106.026 138.42 106.026 138.82Z" fill="#A06652"/>
<path d="M110.126 144.92C109.626 145.62 108.626 145.92 107.926 146.32C107.126 146.82 107.626 147.92 108.526 147.82C108.326 147.92 108.126 147.92 107.826 147.92C107.026 147.72 107.026 146.52 107.626 146.12C108.426 145.62 109.326 145.42 110.126 144.92Z" fill="#A06652"/>
<path opacity="0.7" d="M86.1264 176.42C84.4264 179.02 75.3264 190.52 65.3264 184.72L65.0264 169.72C65.0264 169.72 77.1264 166.32 77.4264 166.22C75.4264 167.82 71.7264 173.42 71.3264 174.92C70.7264 177.52 70.7264 180.92 73.8264 181.82C76.3264 182.52 79.4264 181.02 81.5264 179.62C83.0264 178.72 84.8264 177.72 86.1264 176.42Z" fill="#AB5840"/>
<g opacity="0.5">
<path d="M65.626 169.819L66.626 173.119L75.626 163.019C75.126 162.019 74.526 161.119 74.026 160.119L65.626 169.819Z" fill="#F3F2FB"/>
</g>
<g opacity="0.7">
<path d="M72.3258 214.119C70.1258 214.819 66.8258 215.819 64.5258 216.419C61.9258 217.319 59.2258 217.919 56.4258 217.319V217.119C58.8258 215.519 61.5258 215.019 64.2258 214.819L68.2258 214.319C69.6258 214.219 70.9258 214.019 72.3258 213.919V214.119Z" fill="black"/>
</g>
<path d="M65.6262 112.42C65.9262 112.82 65.8262 116.02 65.8262 116.62C65.8262 117.92 65.8262 119.22 65.9262 120.42C66.1262 122.92 66.4262 125.32 66.9262 127.72C67.4262 130.02 68.0262 132.22 69.0262 134.32C70.2262 136.62 71.5262 138.72 72.7262 141.02C75.9262 147.32 76.5262 155.02 75.6262 161.92C75.2262 165.52 74.1262 169.52 71.5262 172.22C68.7262 175.02 65.1262 176.92 61.5262 178.42C45.4262 184.82 18.7262 184.92 14.0262 171.22C14.0262 171.22 12.6262 165.62 16.6262 162.62C16.0262 163.12 13.4262 160.82 13.1262 160.42C11.5262 158.52 11.7262 155.72 13.1262 153.82C14.5262 151.72 17.4262 151.32 19.5262 150.12C25.1262 146.92 28.9262 142.02 31.6262 136.32C35.0262 129.12 37.9262 121.62 39.5262 113.92C39.5262 113.92 40.3263 112.52 41.6262 110.52L58.7262 109.02L63.0262 109.72C62.9262 109.72 65.6262 112.42 65.6262 112.42Z" fill="#0B060A"/>
<path d="M57.026 133.82L54.726 142.12L53.726 145.82L40.126 143.42C40.126 143.22 46.126 126.42 46.126 126.42L51.326 124.72L55.226 130.92L57.026 133.82Z" fill="#D4795D"/>
<g opacity="0.7">
<path opacity="0.7" d="M57.0258 133.819L54.7258 142.119L46.4258 127.619L55.1258 130.919L57.0258 133.819Z" fill="black"/>
</g>
<path d="M65.4264 115.42C65.4264 116.22 65.4264 117.02 65.4264 117.92C65.3264 121.62 65.0264 125.12 65.0264 125.12C64.2264 129.92 61.7264 132.82 60.2264 134.22C59.5264 134.82 58.5264 135.12 57.5264 134.92C51.7264 133.52 46.1264 127.62 46.1264 127.62L43.7264 121.12L42.5264 116.42L55.4264 106.92L64.8264 110.12C65.2264 111.12 65.4264 113.12 65.4264 115.42Z" fill="#D4795D"/>
<g opacity="0.7">
<path opacity="0.7" d="M46.9258 122.419C46.9258 122.419 48.3258 124.219 49.2258 122.619C49.6258 122.019 49.6258 121.219 49.6258 120.519C49.9258 116.019 53.5258 111.319 58.0258 110.319C58.2258 110.319 58.3258 110.219 58.5258 110.219C58.9258 110.119 59.3258 110.119 59.7258 110.119L52.8258 110.419L48.6258 115.019L46.9258 122.419Z" fill="black"/>
</g>
<path d="M65.8262 114.72C65.8262 113.92 64.9262 112.92 64.4262 112.42C63.8262 111.82 63.0262 111.42 62.2262 111.12C60.3262 110.42 58.1262 110.42 56.1262 110.72C52.7262 111.22 50.3262 113.52 49.2262 116.72C48.8262 117.82 48.6262 118.92 48.5262 120.12C48.5262 120.72 48.9262 122.52 48.1262 122.82C48.0262 122.92 47.8262 122.92 47.7262 122.92C46.9262 122.92 46.8262 122.12 46.2262 121.82C46.0262 121.72 45.7262 121.62 45.4262 121.62C45.3262 121.62 45.3262 121.62 45.2262 121.62C45.1262 121.62 44.9262 121.62 44.8262 121.62C44.7262 121.62 44.6262 121.62 44.5262 121.62C44.3262 121.62 44.0262 121.62 43.8262 121.62L43.5262 121.42L40.3262 118.42L39.8262 112.12C39.8262 112.12 43.0262 103.92 52.5262 103.12C54.6262 102.92 56.7262 102.92 58.7262 103.52C58.8262 103.52 58.9262 103.62 59.0262 103.62C59.1262 103.62 59.2262 103.72 59.2262 103.72C59.5262 103.82 59.8262 103.92 60.1262 104.12C60.3262 104.22 60.5262 104.32 60.7262 104.42C61.7262 104.92 62.6262 105.62 63.4262 106.52C63.5262 106.62 63.6262 106.72 63.7262 106.92C64.1262 107.32 64.4262 107.82 64.6262 108.22C65.2262 109.22 65.6262 110.32 65.8262 111.52C65.9262 112.42 65.9262 113.62 65.8262 114.72Z" fill="#0B060A"/>
<path d="M44.8264 105.72C44.6264 106.12 43.5264 106.72 43.2264 107.02C39.5264 110.42 38.3264 115.12 37.2264 119.82C36.0264 124.82 34.9264 129.82 32.5264 134.42C35.2264 128.22 37.8264 122.02 40.6264 115.82C40.6264 115.92 44.8264 105.82 44.8264 105.72Z" fill="#0B060A"/>
<path d="M64.626 107.92C63.026 106.92 60.826 106.12 58.226 106.12C57.926 106.12 57.726 106.12 57.426 106.12C56.126 106.22 54.726 106.52 53.226 107.12C52.026 107.62 50.926 108.32 49.926 109.32C48.226 110.92 47.526 112.82 47.126 114.92C47.026 115.62 46.926 116.32 46.826 117.02C46.826 117.22 46.426 120.32 46.326 121.62C46.326 121.72 46.326 121.72 46.326 121.72C46.326 122.02 46.326 122.22 46.326 122.22L44.626 122.02C44.526 122.02 44.426 121.72 44.326 121.42C44.226 121.02 44.126 120.62 44.126 120.32V120.22C43.826 118.82 43.626 117.32 43.626 115.82C43.626 113.02 44.326 110.22 46.026 107.92C48.226 105.02 51.526 103.52 55.126 103.32C56.226 103.22 57.626 103.12 58.726 103.32C58.826 103.32 58.926 103.42 59.026 103.42C59.126 103.42 59.226 103.52 59.226 103.52C59.526 103.62 59.826 103.72 60.126 103.92C60.326 104.02 60.526 104.12 60.726 104.22C61.026 104.42 61.326 104.52 61.626 104.72C61.626 104.72 61.726 104.72 61.726 104.82C62.026 105.02 62.226 105.22 62.526 105.42C62.526 105.42 62.626 105.42 62.626 105.52C62.726 105.62 62.726 105.62 62.826 105.72C63.026 105.92 63.226 106.12 63.426 106.32C63.526 106.42 63.626 106.52 63.726 106.72C63.726 106.82 63.826 106.82 63.826 106.92L63.926 107.02C64.126 107.22 64.426 107.52 64.626 107.92Z" fill="#E8E7F7"/>
<g opacity="0.7">
<path opacity="0.7" d="M47.2266 115.02C47.1266 115.72 47.0266 116.42 46.9266 117.12C46.9266 117.32 46.5266 120.42 46.4266 121.72C46.4266 121.82 46.4266 121.82 46.4266 121.82C46.4266 122.12 46.4266 122.32 46.4266 122.32L44.7266 122.12C44.6266 122.12 44.5266 121.82 44.4266 121.52C44.3266 121.12 44.2266 120.72 44.2266 120.42V120.32C44.8266 119.62 45.4266 118.92 45.8266 118.12C46.1266 117.02 46.4266 115.92 47.2266 115.02Z" fill="black"/>
</g>
<path d="M45.3263 127.82C44.2263 127.92 43.3263 127.22 43.1263 126.12L42.7263 123.12C42.6263 122.02 43.3263 121.12 44.4263 120.92C45.5263 120.82 46.4263 121.52 46.6263 122.62L47.0263 125.62C47.1263 126.72 46.3263 127.72 45.3263 127.82Z" fill="#D4795D"/>
<g opacity="0.6">
<path d="M24.126 194.82H73.126C73.126 194.32 73.026 194.02 73.026 193.52C72.926 193.02 72.926 192.42 72.826 191.82H24.426C24.426 192.22 24.426 192.52 24.526 192.92L24.426 193.52L24.126 194.82Z" fill="#F3F2FB"/>
</g>
<path d="M52.4258 123.02C52.8258 121.42 55.2258 120.62 56.3258 122.02C54.7258 121.92 53.7258 122.42 52.4258 123.02Z" fill="#0A060A"/>
<path d="M60.2266 122.22C60.7266 120.82 63.0266 120.82 63.5266 122.12C62.4266 122.02 61.4266 121.82 60.2266 122.22Z" fill="#0A060A"/>
<path opacity="0.7" d="M58.6267 120.52C58.4267 121.12 58.5267 121.72 58.7267 122.12C59.2267 123.12 61.1267 123.92 60.2267 125.22C59.7267 125.72 59.3267 126.02 58.7267 126.32C59.2267 125.82 59.6267 125.42 59.8267 125.02C60.1267 124.32 59.1267 123.62 58.7267 123.12C58.0267 122.42 58.0267 121.32 58.6267 120.52Z" fill="black"/>
<path d="M50.9258 121.52C50.9258 121.32 51.4258 121.02 51.5258 121.02C52.0258 120.52 52.8258 120.32 53.5258 120.02C54.2258 119.72 55.0258 119.82 55.9258 119.62C56.1258 119.62 56.2258 119.52 56.4258 119.42C56.5258 119.32 56.6258 119.12 56.6258 118.92C56.6258 118.72 56.5258 118.52 56.4258 118.42C56.0258 118.02 55.0258 118.32 54.6258 118.42C53.0258 118.92 51.2258 119.92 50.9258 121.52Z" fill="#0A060A"/>
<path d="M73.526 207.22L74.726 228.22H23.726C23.726 228.22 19.126 212.62 27.026 202.32L73.526 207.22Z" fill="#2A3160"/>
<path d="M77.7266 163.62C77.7266 163.62 76.8266 169.12 75.8266 174.62C75.6266 176.02 75.3266 177.42 75.1266 178.72C75.0266 179.22 74.9266 179.72 74.8266 180.22C74.4266 182.22 74.0266 184.02 73.7266 185.12C73.7266 185.22 73.7266 185.22 73.6266 185.32C73.5266 185.72 73.4266 186.02 73.3266 186.22C73.3266 186.22 71.6266 182.12 69.4266 176.52C69.2266 176.02 68.9266 175.42 68.7266 174.82C63.9266 162.82 57.1266 145.32 57.4266 144.02L60.4266 146.92L62.0266 148.52L72.6266 158.82L77.7266 163.62Z" fill="#E8E7F7"/>
<path opacity="0.8" d="M77.7268 163.62C77.7268 163.62 76.8268 169.12 75.8268 174.62C75.6268 176.02 75.3268 177.42 75.1268 178.72C75.0268 179.22 74.9268 179.72 74.8268 180.22C74.4268 182.22 74.0268 184.02 73.7268 185.12C73.7268 185.22 73.7268 185.22 73.6268 185.32C73.5268 185.72 73.4268 186.02 73.3268 186.22C73.3268 186.22 71.6268 182.12 69.4268 176.52L69.5268 176.12L69.6268 175.52L71.0268 167.72L71.2268 166.62L71.6268 164.42L72.6268 158.92L77.7268 163.62Z" fill="#345AE9"/>
<g opacity="0.8">
<path opacity="0.7" d="M75.9264 174.719C75.7264 176.119 75.4264 177.519 75.2264 178.819C75.1264 179.319 75.0264 179.819 74.9264 180.319C74.5264 182.319 74.1264 184.119 73.8264 185.219C72.9264 183.319 71.8264 180.919 70.6264 178.319C70.4264 177.919 70.2264 177.419 70.0264 176.919C69.9264 176.619 69.8264 176.419 69.6264 176.119V176.019L60.5264 146.919L62.1264 148.519C64.2264 151.219 68.0264 156.419 71.7264 164.219C71.9264 164.619 72.1264 165.119 72.3264 165.519C72.5264 166.019 72.7264 166.419 72.9264 166.919C73.9264 169.319 74.9264 171.919 75.9264 174.719Z" fill="black"/>
</g>
<g opacity="0.8">
<path opacity="0.7" d="M75.9264 174.719C75.7264 176.119 75.4264 177.519 75.2264 178.819C75.1264 179.319 75.0264 179.819 74.9264 180.319C74.5264 182.319 74.1264 184.119 73.8264 185.219C72.9264 183.319 71.8264 180.919 70.6264 178.319C70.4264 177.919 70.2264 177.419 70.0264 176.919C69.9264 176.619 69.8264 176.419 69.6264 176.119V176.019L60.5264 146.919L62.1264 148.519C64.2264 151.219 68.0264 156.419 71.7264 164.219C71.9264 164.619 72.1264 165.119 72.3264 165.519C72.5264 166.019 72.7264 166.419 72.9264 166.919C73.9264 169.319 74.9264 171.919 75.9264 174.719Z" fill="black"/>
</g>
<path d="M76.2266 208.519H21.7266L22.8266 202.619L25.9266 185.619L48.7266 138.619C69.8266 144.619 74.7266 187.219 75.8266 202.819C76.1266 206.319 76.2266 208.519 76.2266 208.519Z" fill="#E8E7F7"/>
<path opacity="0.8" d="M76.2266 208.519H21.7266L22.8266 202.619L37.0266 202.719H42.8266L75.9266 202.819C76.1266 206.319 76.2266 208.519 76.2266 208.519Z" fill="#345AE9"/>
<g opacity="0.8">
<path opacity="0.7" d="M59.7267 159.02C59.1267 164.32 57.8267 169.52 56.5267 174.72C55.9267 177.32 55.2267 179.82 54.6267 182.42C53.8267 185.82 52.9267 189.22 51.7267 192.62C51.4267 193.32 51.2267 194.02 50.6267 194.52C49.2267 195.72 47.0267 194.82 45.4267 195.62C43.9267 196.42 43.5267 198.32 43.2267 199.92C43.1267 200.82 42.9267 201.72 42.8267 202.62C42.5267 204.52 42.2267 206.52 41.9267 208.42H38.7267C37.9267 206.52 37.4267 204.52 37.0267 202.52C36.1267 197.42 36.4267 192.02 37.5267 187.02C39.1267 179.42 42.4267 172.22 45.7267 165.12C48.9267 158.02 52.2267 150.82 53.7267 143.12L54.3267 143.02C57.0267 144.42 58.7267 147.12 59.5267 150.02C60.1267 152.92 60.0267 156.02 59.7267 159.02Z" fill="black"/>
</g>
<g opacity="0.8">
<path opacity="0.7" d="M59.7267 159.02C59.1267 164.32 57.8267 169.52 56.5267 174.72C55.9267 177.32 55.2267 179.82 54.6267 182.42C53.8267 185.82 52.9267 189.22 51.7267 192.62C51.4267 193.32 51.2267 194.02 50.6267 194.52C49.2267 195.72 47.0267 194.82 45.4267 195.62C43.9267 196.42 43.5267 198.32 43.2267 199.92C43.1267 200.82 42.9267 201.72 42.8267 202.62C42.5267 204.52 42.2267 206.52 41.9267 208.42H38.7267C37.9267 206.52 37.4267 204.52 37.0267 202.52C36.1267 197.42 36.4267 192.02 37.5267 187.02C39.1267 179.42 42.4267 172.22 45.7267 165.12C48.9267 158.02 52.2267 150.82 53.7267 143.12L54.3267 143.02C57.0267 144.42 58.7267 147.12 59.5267 150.02C60.1267 152.92 60.0267 156.02 59.7267 159.02Z" fill="black"/>
</g>
<path d="M36.6264 233.819C36.6264 233.819 25.7264 217.619 23.9264 199.219C23.9264 199.219 23.0264 192.319 23.9264 187.719C24.0264 187.219 24.1264 186.719 24.3264 186.219L40.5264 189.519C40.3264 189.519 39.3264 194.519 39.2264 194.919C38.7264 198.119 38.9264 201.519 39.3264 204.819C39.7264 208.019 40.3264 211.219 40.8264 214.419C41.6264 219.419 42.3264 224.419 43.2264 229.419C43.3264 230.119 43.4264 230.819 43.5264 231.519" fill="#D4795D"/>
<g opacity="0.7">
<path opacity="0.7" d="M39.3268 204.819C38.8268 203.319 38.1268 201.819 37.4268 200.419C35.9268 197.619 33.4268 195.319 31.0268 193.219C28.8268 191.219 26.4268 189.419 23.9268 187.719C24.0268 187.219 24.1268 186.719 24.3268 186.219L40.5268 189.519C40.3268 189.519 39.3268 194.519 39.2268 194.919C38.8268 198.219 38.9268 201.519 39.3268 204.819Z" fill="black"/>
</g>
<path d="M58.5262 156.919L49.6262 186.619L47.9262 192.319L17.3262 185.319L19.3262 179.619L30.5262 147.719C32.6262 141.719 38.3262 137.819 44.4262 137.819C45.9262 137.819 47.3262 138.019 48.8262 138.519C56.5262 141.019 60.8262 149.219 58.5262 156.919Z" fill="#E8E7F7"/>
<path opacity="0.8" d="M49.6266 186.719L47.8266 192.419L17.2266 185.419L19.2266 179.719L49.6266 186.719Z" fill="#345AE9"/>
<path d="M39.9264 222.919L43.3264 231.419L45.2264 240.119C44.0264 242.219 44.3264 244.319 46.3264 246.519C49.6264 246.719 52.7264 245.819 52.7264 247.819C50.4264 248.819 46.7264 249.419 43.6264 248.919L38.0264 243.519C37.0264 240.219 36.6264 236.919 36.8264 233.919L32.5264 225.919L39.9264 222.919Z" fill="#D4795D"/>
<path d="M63.9264 119.62C63.9264 119.72 63.9264 119.82 63.9264 120.02V120.12C63.9264 120.22 63.9264 120.42 63.9264 120.52C63.4264 120.32 63.1264 120.12 62.6264 120.02C62.1264 119.92 61.6264 119.82 61.2264 119.82C60.8264 119.82 60.1264 119.82 60.0264 119.32C60.0264 119.12 60.0264 118.92 60.2264 118.82C60.3264 118.72 60.5264 118.62 60.6264 118.62C60.8264 118.52 61.1264 118.62 61.2264 118.62C62.0264 118.72 62.9264 118.92 63.6264 119.42C63.7264 119.42 63.8264 119.52 63.9264 119.62Z" fill="#0A060A"/>
<path d="M55.2266 127.72H60.4266C60.6266 127.72 59.9266 129.32 59.9266 129.42C58.1266 131.32 55.8266 129.42 55.2266 127.72Z" fill="white"/>
</g>
<defs>
<clipPath id="clip0_3959_28412">
<rect width="224" height="224" fill="white"/>
</clipPath>
</defs>
</svg>
